<svg width="163" height="51" viewBox="0 0 163 51" fill="none" xmlns="http://www.w3.org/2000/svg">
<g clip-path="url(#clip0_103_212)">
<path d="M7.38345 50.9957H0V5.23857C0 2.34563 2.30733 0 5.15304 0H12.5365V45.7571C12.5365 48.65 10.2292 50.9957 7.38345 50.9957Z" fill="#2979FF"/>
<path d="M112.845 0V7.506C112.845 10.3989 110.538 12.7446 107.692 12.7446H100.305V5.23857C100.305 2.34563 102.612 0 105.458 0H112.845Z" fill="#673AB7"/>
<path d="M105.462 19.1169H112.85V45.7527C112.85 48.6457 110.542 50.9913 107.697 50.9913H100.309V24.3554C100.305 21.4625 102.612 19.1169 105.462 19.1169Z" fill="#2979FF"/>
<path d="M38.7289 50.9957H31.3455V5.23857C31.3455 2.34563 33.6528 0 36.4985 0H43.8819V45.7571C43.8819 48.65 41.5746 50.9957 38.7289 50.9957Z" fill="#2979FF"/>
<path d="M43.8823 31.8661V19.1215L18.8051 19.1215L18.8051 31.8661L43.8823 31.8661Z" fill="#2979FF"/>
<path d="M97.8393 51H82.4187L70.412 33.9421C69.4677 32.5998 68.9593 30.9927 68.9593 29.342V24.3163C68.9593 21.4494 71.2452 19.1299 74.061 19.1299H82.5255C83.1921 18.2438 83.5852 17.1318 83.5852 15.9285C83.5852 14.734 83.2006 13.635 82.5469 12.7489H62.6868V45.7614C62.6868 48.6544 60.3794 51 57.5337 51H50.1503V5.2429C50.1503 2.34996 52.4576 0.0043335 55.3033 0.0043335H78.868C86.2258 0.24324 92.3018 5.63384 93.7161 12.7489C93.9254 13.774 94.0323 14.8382 94.0323 15.9285C94.0323 17.0232 93.9212 18.0961 93.7118 19.1299C92.618 24.5943 88.7639 29.0423 83.6963 30.9058L97.8393 51Z" fill="#2979FF"/>
<path d="M162.684 31.8658C162.893 32.8952 163 33.9638 163 35.0584C163 36.1487 162.893 37.2173 162.684 38.2467C161.231 45.5182 154.912 50.9913 147.327 50.9913H119.118V43.4853C119.118 40.5924 121.425 38.2467 124.271 38.2467H151.506C152.164 37.3563 152.553 36.253 152.553 35.0584C152.553 33.8595 152.16 32.7519 151.502 31.8658H134.787C133.842 31.8658 132.919 31.7832 132.022 31.6182C125.711 30.4758 120.703 25.4891 119.434 19.1212V19.1169H130.608C130.612 19.1169 130.612 19.1212 130.612 19.1212C130.616 19.1255 130.616 19.1255 130.616 19.1299L138.953 19.1342L146.725 19.1386H146.883L147.968 19.1429C147.99 19.1386 148.011 19.1386 148.032 19.1429C148.733 19.1733 149.417 19.2515 150.092 19.3731C156.407 20.5155 161.411 25.5022 162.684 31.8658Z" fill="#2979FF"/>
<path d="M163 0V7.51035C163 10.4033 160.693 12.7489 157.847 12.7489H134.791V12.7446H119.434C120.887 5.46878 127.206 0 134.786 0H163Z" fill="#673AB7"/>
</g>
<defs>
<clipPath id="clip0_103_212">
<rect width="163" height="51" fill="white"/>
</clipPath>
</defs>
</svg>
